<svg width="141" height="26" viewBox="0 0 141 26" fill="none" xmlns="http://www.w3.org/2000/svg">
<path d="M4.56287 25.51L12.9029 19.42L21.3029 25.51L18.0329 15.97L25.7729 10.78H16.3529L12.9029 0.549998L9.51287 10.78H0.0328687L7.77287 15.97L4.56287 25.51ZM33.3617 25.51L41.7017 19.42L50.1017 25.51L46.8317 15.97L54.5717 10.78H45.1517L41.7017 0.549998L38.3117 10.78H28.8317L36.5717 15.97L33.3617 25.51ZM62.1605 25.51L70.5005 19.42L78.9005 25.51L75.6305 15.97L83.3705 10.78H73.9505L70.5005 0.549998L67.1105 10.78H57.6305L65.3705 15.97L62.1605 25.51ZM90.9594 25.51L99.2994 19.42L107.699 25.51L104.429 15.97L112.169 10.78H102.749L99.2994 0.549998L95.9094 10.78H86.4294L94.1694 15.97L90.9594 25.51ZM119.758 25.51L128.098 19.42L136.498 25.51L133.228 15.97L140.968 10.78H131.548L128.098 0.549998L124.708 10.78H115.228L122.968 15.97L119.758 25.51Z" fill="#AED8A9"/>
</svg>
