<svg width="19" height="19" viewBox="0 0 19 19" fill="none" xmlns="http://www.w3.org/2000/svg">
<g clip-path="url(#clip0_314_430)">
<path d="M18.5005 16.8025C18.5005 17.7345 17.745 18.49 16.813 18.49H2.18799C1.256 18.49 0.500488 17.7345 0.500488 16.8025V7.5467C0.500491 7.29081 0.558689 7.03827 0.670679 6.80819C0.782669 6.57811 0.945518 6.3765 1.14691 6.21864C2.02275 5.53207 2.74655 4.97534 6.91956 1.94677C7.51107 1.5155 8.68476 0.477796 9.50049 0.490101C10.316 0.477656 11.4902 1.51568 12.0814 1.94673C16.254 4.97498 16.9788 5.53249 17.8541 6.21864C18.0555 6.3765 18.2183 6.57811 18.3303 6.80819C18.4423 7.03827 18.5005 7.29081 18.5005 7.5467V16.8025ZM16.1919 9.8906C16.1018 9.75954 15.9212 9.72906 15.7933 9.82356C14.9901 10.4168 13.8434 11.2546 12.0814 12.5334C11.4899 12.9646 10.3162 14.0022 9.50049 13.9899C8.68448 14.002 7.51209 12.9653 6.91956 12.5334C5.15774 11.2547 4.01095 10.4168 3.2077 9.82356C3.07976 9.72906 2.89916 9.75954 2.80906 9.8906L2.49012 10.3545C2.44878 10.4146 2.43241 10.4884 2.44448 10.5604C2.45654 10.6323 2.49609 10.6968 2.55477 10.7401C3.35939 11.3342 4.50433 12.1706 6.25683 13.4425C6.96959 13.9621 8.244 15.1234 9.50049 15.115C10.7564 15.1235 12.0304 13.9629 12.7441 13.4425C14.4966 12.1706 15.6416 11.3342 16.4462 10.7401C16.5049 10.6968 16.5444 10.6323 16.5565 10.5604C16.5685 10.4884 16.5522 10.4146 16.5108 10.3545L16.1919 9.8906Z" fill="white"/>
</g>
<defs>
<clipPath id="clip0_314_430">
<rect width="18" height="18" fill="white" transform="translate(0.5 0.48999)"/>
</clipPath>
</defs>
</svg>
