<svg width="19" height="19" viewBox="0 0 19 19" fill="none" xmlns="http://www.w3.org/2000/svg">
<g clip-path="url(#clip0_314_426)">
<path d="M18.2183 9.48999C18.2183 4.67358 14.3159 0.77124 9.49951 0.77124C4.68311 0.77124 0.780762 4.67358 0.780762 9.48999C0.780762 13.8416 3.96908 17.4487 8.13721 18.1033V12.0103H5.92236V9.48999H8.13721V7.56905C8.13721 5.38409 9.43799 4.17718 11.4303 4.17718C12.3844 4.17718 13.3822 4.34733 13.3822 4.34733V6.49187H12.2825C11.1997 6.49187 10.8618 7.16405 10.8618 7.85347V9.48999H13.2799L12.8931 12.0103H10.8618V18.1033C15.0299 17.4487 18.2183 13.8416 18.2183 9.48999Z" fill="white"/>
</g>
<defs>
<clipPath id="clip0_314_426">
<rect width="18" height="18" fill="white" transform="translate(0.5 0.48999)"/>
</clipPath>
</defs>
</svg>
