<svg width="19" height="19" viewBox="0 0 19 19" fill="none" xmlns="http://www.w3.org/2000/svg">
<g clip-path="url(#clip0_314_428)">
<path d="M16.6502 5.8238C16.6616 5.98369 16.6616 6.14362 16.6616 6.30351C16.6616 11.1804 12.9497 16.7997 6.16546 16.7997C4.07535 16.7997 2.13374 16.1943 0.500488 15.1436C0.797453 15.1779 1.08296 15.1893 1.39135 15.1893C3.11594 15.1893 4.70352 14.6068 5.97129 13.6132C4.34946 13.5789 2.99032 12.5167 2.52204 11.0548C2.75049 11.089 2.9789 11.1119 3.21877 11.1119C3.54998 11.1119 3.88122 11.0662 4.18957 10.9863C2.49923 10.6436 1.23142 9.15883 1.23142 7.36569V7.32002C1.72252 7.59413 2.29363 7.76545 2.89892 7.78826C1.90526 7.12581 1.25427 5.99512 1.25427 4.71592C1.25427 4.03066 1.43698 3.40249 1.7568 2.85426C3.57279 5.09283 6.3025 6.55474 9.36338 6.71466C9.30629 6.44055 9.27201 6.15505 9.27201 5.86951C9.27201 3.83649 10.9167 2.18042 12.9611 2.18042C14.0233 2.18042 14.9826 2.62585 15.6565 3.34539C16.4903 3.1855 17.2897 2.87711 17.9979 2.45453C17.7237 3.31115 17.1413 4.03069 16.3761 4.48751C17.1185 4.4076 17.838 4.20197 18.5004 3.91647C17.998 4.6474 17.3698 5.29839 16.6502 5.8238Z" fill="white"/>
</g>
<defs>
<clipPath id="clip0_314_428">
<rect width="18" height="18" fill="white" transform="translate(0.5 0.48999)"/>
</clipPath>
</defs>
</svg>
